<?xml version="1.0"?>
<svg width="250mm" height="200mm" viewBox="0 0 2600 1500"
     xmlns="http://www.w3.org/2000/svg"
     xmlns:xlink="http://www.w3.org/1999/xlink"
     xmlns:ev="http://www.w3.org/2001/xml-events">
<g font-family="Verdana" font-size="8">
  <rect x="2000" y="20" width="200" height="20" style="fill:chartreuse; stroke: black;"/>1
  <text x="2002" y="33">THERMAL ZONE 1</text>
  <rect x="200" y="220" width="200" height="20" style="fill:snow; stroke: black;"/>5
  <text x="202" y="233">OutdoorAir:NodeList</text>
  <rect x="1400" y="20" width="200" height="20" style="fill:wheat; stroke: black;"/>11
  <text x="1402" y="33">AIR LOOP HVAC ZONE SPLITTER 1</text>
  <rect x="1700" y="20" width="200" height="20" style="fill:snow; stroke: black;"/>12
  <text  x="1702" y="28">AIR TERMINAL SINGLE DUCT CONSTANT
  <tspan x="1702" y="36">VOLUME NO REHEAT 1</tspan></text>
  <rect x="1700" y="60" width="200" height="20" style="fill:snow; stroke: black;"/>13
  <text  x="1702" y="68">AIR TERMINAL SINGLE DUCT CONSTANT
  <tspan x="1702" y="76">VOLUME NO REHEAT 2</tspan></text>
  <rect x="1700" y="100" width="200" height="20" style="fill:snow; stroke: black;"/>14
  <text  x="1702" y="108">AIR TERMINAL SINGLE DUCT CONSTANT
  <tspan x="1702" y="116">VOLUME NO REHEAT 3</tspan></text>
  <rect x="1700" y="140" width="200" height="20" style="fill:snow; stroke: black;"/>15
  <text  x="1702" y="148">AIR TERMINAL SINGLE DUCT CONSTANT
  <tspan x="1702" y="156">VOLUME NO REHEAT 4</tspan></text>
  <rect x="2300" y="140" width="200" height="20" style="fill:wheat; stroke: black;"/>16
  <text x="2302" y="153">AIR LOOP HVAC ZONE MIXER 1</text>
  <rect x="200" y="20" width="200" height="20" style="fill:lawngreen; stroke: black;"/>17
  <text  x="202" y="28">AIR LOOP HVAC OUTDOOR AIR SYSTEM 1
  <tspan x="202" y="36">OUTDOOR AIR MIXER</tspan></text>
  <rect x="1100" y="20" width="200" height="20" style="fill:silver; stroke: black;"/>18
  <text x="1102" y="33">FAN CONSTANT VOLUME 1</text>
  <rect x="500" y="20" width="200" height="20" style="fill:skyblue; stroke: black;"/>20
  <text x="502" y="33">COIL COOLING DX SINGLE SPEED 1</text>
  <rect x="800" y="20" width="200" height="20" style="fill:salmon; stroke: black;"/>21
  <text x="802" y="33">COIL HEATING GAS 1</text>
  <rect x="2000" y="60" width="200" height="20" style="fill:chartreuse; stroke: black;"/>22
  <text x="2002" y="73">THERMAL ZONE 2</text>
  <rect x="2000" y="100" width="200" height="20" style="fill:chartreuse; stroke: black;"/>23
  <text x="2002" y="113">THERMAL ZONE 3</text>
  <rect x="2000" y="140" width="200" height="20" style="fill:chartreuse; stroke: black;"/>24
  <text x="2002" y="153">THERMAL ZONE 4</text>
  <line x1="1600" y1="30" x2="1700" y2="30" style="stroke:black;"/>
  <line x1="1600" y1="30" x2="1700" y2="70" style="stroke:black;"/>
  <line x1="1600" y1="30" x2="1700" y2="110" style="stroke:black;"/>
  <line x1="1600" y1="30" x2="1700" y2="150" style="stroke:black;"/>
  <line x1="1900" y1="30" x2="2000" y2="30" style="stroke:black;"/>
  <line x1="1900" y1="70" x2="2000" y2="70" style="stroke:black;"/>
  <line x1="1900" y1="110" x2="2000" y2="110" style="stroke:black;"/>
  <line x1="1900" y1="150" x2="2000" y2="150" style="stroke:black;"/>
  <line x1="400" y1="30" x2="500" y2="30" style="stroke:black;"/>
  <line x1="1300" y1="30" x2="1400" y2="30" style="stroke:black;"/>
  <line x1="700" y1="30" x2="800" y2="30" style="stroke:black;"/>
  <line x1="1000" y1="30" x2="1100" y2="30" style="stroke:black;"/>
  <line x1="2200" y1="30" x2="2300" y2="150" style="stroke:black;"/>
  <line x1="2200" y1="70" x2="2300" y2="150" style="stroke:black;"/>
  <line x1="2200" y1="110" x2="2300" y2="150" style="stroke:black;"/>
  <line x1="2200" y1="150" x2="2300" y2="150" style="stroke:black;"/>
  <line x1="200" y1="30" x2="175" y2="30" style="stroke:black;"/>
  <line x1="175" y1="30" x2="175" y2="0" style="stroke:black;"/>
  <line x1="175" y1="0" x2="2525" y2="0" style="stroke:black;"/>
  <line x1="2525" y1="0" x2="2525" y2="150" style="stroke:black;"/>
  <line x1="2525" y1="150" x2="2500" y2="150" style="stroke:black;"/>
  <text x="200" y="280">Unused Non-Parent Objects:</text>
  <text x="220" y="300">OutdoorAir:Node</text>
  <text x="220" y="320">SETPOINT MANAGER SINGLE ZONE REHEAT 1</text>
  <text x="220" y="340">NODE 10 OS DEFAULT SPM</text>
  <text x="220" y="360">NODE 11 OS DEFAULT SPM</text>
  <text x="220" y="380">NODE 12 OS DEFAULT SPM</text>
  <text x="220" y="400">CONTROLLER OUTDOOR AIR 1</text>
  <text x="200" y="440">
The following are not supported: objects related to controls or ZoneHVAC:IdealLoadsAirSystem</text>
</g>
</svg>
